# xmcd
#
# Track frame offsets: 
#        150
#        23878
#        50604
#        74941
#        96696
#        113221
#        134339
#        161712
#        179097
#        204713
#
# Disc length: 3021 seconds
#
# Revision: 0
# Processed by: cddbd v1.5.2PL0 Copyright (c) Steve Scherf et al.
# Submitted via: ExactAudioCopy v1.0b3
#
DISCID=a50bcb0a
DTITLE=Various Artist - Canh Buom Vuon Xuan
DYEAR=1991
DGENRE=
TTITLE0=Kieu Nga - Xuan yeu thuong
TTITLE1=Liliann - Don Xuan nho Xuan
TTITLE2=Tuyet Nhung - Khuc ca mung Xuan
TTITLE3=Duy Quang - Dau Xuan linh chuc
TTITLE4=Ky Duyen - Canh buom vuon Xuan
TTITLE5=Thai Thao - Xuan mien Nam
TTITLE6=Hang Nga - Doi nga chia ly
TTITLE7=Nhu Mai - Mung nang Xuan ve
TTITLE8=Thuy Vi - Dan ao mua Xuan
TTITLE9=Linda, Thuy Du - Thien duyen tien dinh
EXTD=
EXTT0=
EXTT1=
EXTT2=
EXTT3=
EXTT4=
EXTT5=
EXTT6=
EXTT7=
EXTT8=
EXTT9=
PLAYORDER=
